<svg xmlns="http://www.w3.org/2000/svg" viewBox="0 0 64 64" role="img" aria-hidden="true">
  <defs>
    <linearGradient id="ghasShieldGrad" x1="0" y1="0" x2="1" y2="1">
      <stop offset="0%" stop-color="#1769ff" />
      <stop offset="100%" stop-color="#0f3ea8" />
    </linearGradient>
  </defs>
  <path d="M32 8l20 7v14c0 13.4-8.6 25.6-20 29-11.4-3.4-20-15.6-20-29V15l20-7z" fill="url(#ghasShieldGrad)" />
  <path d="M32 22a4 4 0 0 1 4 4v12a4 4 0 0 1-8 0V26a4 4 0 0 1 4-4zm0 25a4.5 4.5 0 1 1 0-9 4.5 4.5 0 0 1 0 9z" fill="#eaf2ff" />
</svg>